<?xml version="1.0" encoding="UTF-8"?>
<!DOCTYPE svg PUBLIC "-//W3C//DTD SVG 1.1//EN" "http://www.w3.org/Graphics/SVG/1.1/DTD/svg11.dtd">
<!-- Creator: CorelDRAW X6 -->
<svg xmlns="http://www.w3.org/2000/svg" xml:space="preserve" width="300px" height="300px" version="1.1" style="shape-rendering:geometricPrecision; text-rendering:geometricPrecision; image-rendering:optimizeQuality; fill-rule:evenodd; clip-rule:evenodd"
viewBox="0 0 588 588"
 xmlns:xlink="http://www.w3.org/1999/xlink">
 <defs>
  <style type="text/css">
   <![CDATA[
    .str0 {stroke:white;stroke-width:25.427}
    .fil0 {fill:#3F6C99}
   ]]>
  </style>
 </defs>
 <g id="Слой_x0020_1">
  <metadata id="CorelCorpID_0Corel-Layer"/>
  <polygon class="fil0 str0" points="93,495 93,93 173,93 173,495 "/>
  <polygon class="fil0 str0" points="173,414 173,13 254,13 254,414 "/>
  <polygon class="fil0 str0" points="414,414 495,414 495,495 414,495 "/>
  <polygon class="fil0 str0" points="333,454 93,173 13,173 13,575 93,575 92,293 334,575 414,575 414,173 334,173 "/>
  <polygon class="fil0 str0" points="173,495 173,414 334,414 334,495 "/>
  <rect class="fil0" x="158" y="427" width="31.0643" height="54.9149"/>
  <polygon class="fil0 str0" points="254,173 495,13 575,13 575,53 394,173 334,173 334,214 575,374 575,414 495,414 254,254 "/>
  <rect class="fil0" x="239" y="175" width="36.565" height="77.2133"/>
 </g>
</svg>
