<?xml version="1.0" encoding="UTF-8"?>
<!DOCTYPE svg PUBLIC "-//W3C//DTD SVG 1.1//EN" "http://www.w3.org/Graphics/SVG/1.1/DTD/svg11.dtd">
<!-- Creator: CorelDRAW X6 -->
<svg xmlns="http://www.w3.org/2000/svg" xml:space="preserve" width="540px" height="540px" version="1.1" style="shape-rendering:geometricPrecision; text-rendering:geometricPrecision; image-rendering:optimizeQuality; fill-rule:evenodd; clip-rule:evenodd"
viewBox="0 0 1025 1025"
 xmlns:xlink="http://www.w3.org/1999/xlink">
 <defs>
  <style type="text/css">
   <![CDATA[
    .str0 {stroke:white;stroke-width:33.6141}
    .fil0 {fill:none}
   ]]>
  </style>
 </defs>
 <g id="Слой_x0020_1">
  <metadata id="CorelCorpID_0Corel-Layer"/>
  <path class="fil0 str0" d="M300 867l-142 0 0 -357 184 215m-184 -425l0 -142 142 0 0 307m0 211l0 49 282 0 0 142 -282 0m0 -709l0 -141 142 0 0 283 425 -283 141 0 0 71 -320 212 -105 0 0 71 425 283 0 71 -141 0 -425 -283 0 188m283 95l142 0 0 142 -142 0 0 -142zm-263 142l121 141 142 0 0 -377m0 -166l0 -165 -37 0m-105 236l-1 189m-59 0l-365 -425 -141 0 0 708 141 0 0 -141"/>
 </g>
</svg>
