<?xml version="1.0" encoding="UTF-8"?>
<!DOCTYPE svg PUBLIC "-//W3C//DTD SVG 1.1//EN" "http://www.w3.org/Graphics/SVG/1.1/DTD/svg11.dtd">
<!-- Creator: CorelDRAW X6 -->
<svg xmlns="http://www.w3.org/2000/svg" xml:space="preserve" width="400px" height="400px" version="1.1" style="shape-rendering:geometricPrecision; text-rendering:geometricPrecision; image-rendering:optimizeQuality; fill-rule:evenodd; clip-rule:evenodd"
viewBox="0 0 6795 6795"
 xmlns:xlink="http://www.w3.org/1999/xlink">
 <defs>
  <style type="text/css">
   <![CDATA[
    .str0 {stroke:white;stroke-width:113.257}
    .fil0 {fill-opacity:0}
    .fil1 {fill:#3F6C99}
   ]]>
  </style>
 </defs>
 <g id="Слой_x0020_1">
  <metadata id="CorelCorpID_0Corel-Layer"/>
  <rect class="fil0" width="6795" height="6795"/>
  <polygon class="fil1 str0" points="2030,4811 2030,1979 2596,1979 2596,4811 "/>
  <polygon class="fil1 str0" points="2596,4244 2596,1413 3162,1413 3162,4244 "/>
  <polygon class="fil1 str0" points="4295,4244 4861,4244 4861,4811 4295,4811 "/>
  <polygon class="fil1 str0" points="3724,4522 2030,2545 1463,2545 1463,5377 2030,5377 2024,3389 3728,5377 4295,5377 4295,2545 3728,2545 "/>
  <polygon class="fil1 str0" points="2596,4811 2596,4244 3728,4244 3728,4811 "/>
  <rect class="fil1" x="2488" y="4301" width="219" height="453"/>
  <polygon class="fil1 str0" points="3162,2545 4861,1413 5427,1413 5427,1696 4147,2545 3728,2545 3728,2829 5427,3961 5427,4244 4861,4244 3162,3112 "/>
  <rect class="fil1" x="3055" y="2557" width="258" height="544"/>
 </g>
</svg>
