<?xml version="1.0" encoding="UTF-8"?>
<!DOCTYPE svg PUBLIC "-//W3C//DTD SVG 1.1//EN" "http://www.w3.org/Graphics/SVG/1.1/DTD/svg11.dtd">
<!-- Creator: CorelDRAW X6 -->
<svg xmlns="http://www.w3.org/2000/svg" xml:space="preserve" width="200px" height="200px" version="1.1" style="shape-rendering:geometricPrecision; text-rendering:geometricPrecision; image-rendering:optimizeQuality; fill-rule:evenodd; clip-rule:evenodd"
viewBox="0 0 392 392"
 xmlns:xlink="http://www.w3.org/1999/xlink">
 <defs>
  <style type="text/css">
   <![CDATA[
    .str0 {stroke:white;stroke-width:16.9513}
    .fil0 {fill:#3F6C99}
   ]]>
  </style>
 </defs>
 <g id="Слой_x0020_1">
  <metadata id="CorelCorpID_0Corel-Layer"/>
  <polygon class="fil0 str0" points="62,330 62,62 116,62 116,330 "/>
  <polygon class="fil0 str0" points="116,276 116,8 169,8 169,276 "/>
  <polygon class="fil0 str0" points="276,276 330,276 330,330 276,330 "/>
  <polygon class="fil0 str0" points="222,303 62,116 8,116 8,383 62,383 62,195 223,383 276,383 276,116 223,116 "/>
  <polygon class="fil0 str0" points="115,330 116,276 222,276 222,330 "/>
  <rect class="fil0" x="106" y="285" width="17.6608" height="36.6286"/>
  <polygon class="fil0 str0" points="169,116 330,8 383,8 383,35 262,116 223,116 223,142 383,250 383,276 330,276 169,169 "/>
  <rect class="fil0" x="159" y="117" width="24.3766" height="51.4755"/>
 </g>
</svg>
